<?xml version="1.0" standalone="no"?>
<!DOCTYPE svg PUBLIC "-//W3C//DTD SVG 20010904//EN"
 "http://www.w3.org/TR/2001/REC-SVG-20010904/DTD/svg10.dtd">
<svg version="1.0" xmlns="http://www.w3.org/2000/svg"
 width="16.000000pt" height="16.000000pt" viewBox="0 0 16.000000 16.000000"
 preserveAspectRatio="xMidYMid meet">
<metadata>
Created by potrace 1.11, written by Peter Selinger 2001-2013
</metadata>
<g transform="translate(0.000000,16.000000) scale(0.003125,-0.003125)"
fill="#000000" stroke="none">
<path d="M1243 5108 c-31 -15 -37 -34 -117 -356 l-72 -287 -152 -3 c-207 -4
-192 19 -192 -299 l0 -244 25 -24 c20 -21 34 -25 84 -25 l59 0 6 -57 c4 -32
36 -407 71 -833 36 -426 67 -790 70 -808 12 -68 83 -94 130 -47 17 16 25 35
25 58 0 34 -64 813 -76 920 l-6 57 1462 0 1462 0 -6 -57 c-10 -90 -186 -2185
-186 -2210 l0 -23 -1270 0 -1270 0 0 23 c0 12 -18 238 -41 502 -29 344 -44
486 -55 502 -28 43 -101 42 -130 -1 -14 -23 -9 -93 60 -923 42 -494 81 -910
87 -924 6 -15 22 -31 35 -38 36 -16 2592 -16 2628 0 13 7 29 23 35 38 6 14 80
854 166 1866 85 1012 157 1866 161 1898 l6 57 59 0 c50 0 64 4 84 25 l25 24 0
244 c0 318 15 295 -192 299 l-152 3 -72 287 c-39 159 -77 301 -83 317 -7 15
-24 33 -37 40 -34 15 -2599 15 -2631 -1z m2612 -459 c70 -280 80 -312 103
-327 20 -13 55 -18 159 -20 l133 -4 0 -134 0 -134 -1690 0 -1690 0 0 135 0
135 1399 0 c1016 0 1407 3 1431 11 58 21 71 111 20 139 -12 6 -467 10 -1254
10 -679 0 -1237 4 -1240 8 -2 4 23 117 56 250 l60 242 1218 0 1218 0 77 -311z
m220 -816 c-3 -21 -12 -126 -20 -233 -8 -107 -18 -214 -21 -237 l-5 -43 -1469
0 -1469 0 -5 43 c-3 23 -13 130 -21 237 -8 107 -17 212 -20 233 l-5 37 1520 0
1520 0 -5 -37z m-270 -3200 c-4 -43 -14 -166 -24 -273 l-16 -195 -1205 0
-1205 0 -16 195 c-10 107 -20 230 -24 273 l-6 77 1251 0 1251 0 -6 -77z"/>
<path d="M2265 2764 c-238 -31 -395 -163 -441 -372 -21 -95 -14 -245 16 -352
127 -446 629 -822 1031 -771 324 42 495 308 423 659 -86 422 -513 807 -924
835 -41 3 -88 3 -105 1z m14 -554 c18 0 42 5 53 11 18 10 27 4 74 -42 52 -51
53 -53 38 -80 -8 -15 -14 -38 -14 -51 0 -16 78 -100 277 -300 l277 -277 -39
-17 c-21 -9 -71 -18 -111 -21 -327 -25 -717 280 -834 652 -29 92 -31 218 -5
298 l18 58 117 -116 c100 -99 121 -115 149 -115z"/>
</g>
</svg>
